<svg width="1024" height="1024" viewBox="0 0 1024 1024" fill="none" xmlns="http://www.w3.org/2000/svg">
<rect width="1024" height="1024" rx="512" fill="url(#paint0_linear_2018_77)"/>
<path d="M648.364 388.579C554.832 388.579 480.533 436.002 449.508 518.831C449.508 518.831 436.314 545.144 462.215 554.994C488.116 564.844 500.595 538.017 500.595 538.017C523.864 475.896 578.213 443.211 648.364 443.211C667.408 443.211 685.692 446.469 702.691 452.459C766.359 474.897 812 535.664 812 607.105C812 697.622 738.737 771 648.364 771H375.636C285.262 771 212 697.622 212 607.105C212 535.664 257.64 474.897 321.31 452.459C321.165 449.395 321.091 446.311 321.091 443.211C321.091 337.608 406.564 252 512 252C600.418 252 674.799 312.204 696.505 393.916C681.017 390.423 664.905 388.579 648.364 388.579Z" fill="#F4F4F4"/>
<defs>
<linearGradient id="paint0_linear_2018_77" x1="0" y1="0" x2="1024" y2="1024" gradientUnits="userSpaceOnUse">
<stop stop-color="#70F570"/>
<stop offset="1" stop-color="#49C628"/>
</linearGradient>
</defs>
</svg>
