<svg width="391" height="134" viewBox="0 0 391 134" fill="none" xmlns="http://www.w3.org/2000/svg">
<path d="M106.639 14.223C104.166 12.362 101.605 10.703 98.975 9.23999C97.071 8.18099 94.68 8.67599 93.371 10.417L76.879 32.329L75.703 33.892C73.917 36.265 71.065 37.557 68.098 37.421C67.016 37.372 65.934 37.382 64.856 37.45C56.567 37.975 48.548 41.975 43.162 49.131C38.832 54.884 36.933 61.707 37.283 68.376C37.346 69.577 38.04 70.674 39.134 71.172C41.404 72.204 43.151 74.309 43.588 77.002C44.206 80.811 41.866 84.553 38.17 85.661C33.813 86.967 29.338 84.298 28.356 79.937C27.824 77.575 28.435 75.226 29.819 73.457C30.587 72.476 30.973 71.254 30.863 70.013C30.105 61.461 32.383 52.611 37.953 45.211C44.979 35.877 55.67 30.937 66.515 30.874C68.605 30.862 70.567 29.863 71.824 28.193L87.012 8.01502C88.201 6.43602 87.433 4.16699 85.536 3.60999C60.106 -3.85001 31.631 4.54401 14.576 26.756C-7.523 55.537 -2.153 97.035 26.563 119.218C29.25 121.294 32.045 123.127 34.923 124.726C36.816 125.778 39.197 125.263 40.5 123.533L56.992 101.622L58.168 100.059C59.954 97.686 62.806 96.394 65.773 96.53C66.855 96.579 67.937 96.569 69.015 96.501C77.304 95.976 85.323 91.976 90.709 84.82C95.039 79.067 96.938 72.244 96.588 65.575C96.525 64.374 95.831 63.277 94.737 62.779C92.467 61.747 90.72 59.642 90.283 56.949C89.665 53.14 92.005 49.398 95.701 48.291C100.058 46.985 104.533 49.654 105.515 54.015C106.047 56.377 105.436 58.726 104.052 60.495C103.284 61.476 102.898 62.698 103.008 63.939C103.766 72.491 101.488 81.341 95.918 88.741C88.892 98.075 78.201 103.015 67.356 103.078C65.266 103.09 63.304 104.089 62.047 105.759L46.86 125.936C45.68 127.504 46.421 129.778 48.304 130.332C73.937 137.866 102.672 129.287 119.688 106.68C141.614 77.545 135.773 36.151 106.639 14.223Z" fill="#00A0FF"/>
<path d="M215.613 32.257L215.612 30.69C215.611 29.557 214.692 28.638 213.559 28.638H162.135C161.001 28.638 160.082 29.557 160.082 30.691V33.828C160.082 34.962 161.001 35.881 162.135 35.881H205.764C207.019 35.881 207.985 36.988 207.798 38.229C206.574 46.342 202.737 61.514 190.747 76.083C189.9 77.112 188.328 77.094 187.506 76.044C177.474 63.216 174.387 50.064 173.544 45.218C173.36 44.157 172.378 43.426 171.307 43.54L169.664 43.714L168.215 43.865C167.027 43.989 166.189 45.093 166.407 46.268C167.435 51.826 171.18 67.109 182.956 81.656C183.639 82.499 183.581 83.732 182.781 84.466C168.445 97.615 155.552 100.497 150.94 101.123C149.913 101.263 149.146 102.132 149.151 103.169L149.166 106.338C149.172 107.558 150.231 108.512 151.442 108.37C156.926 107.725 171.558 104.627 187.726 89.757C188.525 89.023 189.74 89.023 190.536 89.76C198.349 96.995 208.335 103.971 221.802 108.255C222.893 108.602 224.061 107.968 224.384 106.87L225.271 103.863C225.589 102.785 224.974 101.665 223.904 101.324C211.652 97.416 202.619 91.124 195.526 84.673C194.708 83.929 194.667 82.667 195.385 81.827C215.369 58.431 215.615 33.395 215.613 32.257Z" fill="#00A0FF"/>
<path d="M251.31 25.355H248.173C247.039 25.355 246.12 26.274 246.12 27.408V38.407C246.12 39.541 245.201 40.46 244.067 40.46H236.688C235.554 40.46 234.635 41.379 234.635 42.513V45.65C234.635 46.784 235.554 47.703 236.688 47.703H244.067C245.201 47.703 246.12 48.622 246.12 49.756V65.689C246.12 66.823 245.201 67.742 244.067 67.742H236.688C235.554 67.742 234.635 68.661 234.635 69.795V72.932C234.635 74.066 235.554 74.985 236.688 74.985H244.067C245.201 74.985 246.12 75.904 246.12 77.038V92.103C246.12 95.373 244.813 100.709 236.472 101.413C235.394 101.504 234.551 102.378 234.551 103.46V106.585C234.551 107.781 235.568 108.742 236.76 108.64C244.859 107.947 253.363 103.348 253.363 92.103V77.038C253.363 75.904 254.282 74.985 255.416 74.985H261.973C263.107 74.985 264.026 74.066 264.026 72.932V69.795C264.026 68.661 263.107 67.742 261.973 67.742H255.416C254.282 67.742 253.363 66.823 253.363 65.689V49.756C253.363 48.622 254.282 47.703 255.416 47.703H261.973C263.107 47.703 264.026 46.784 264.026 45.65V42.513C264.026 41.379 263.107 40.46 261.973 40.46H255.416C254.282 40.46 253.363 39.541 253.363 38.407V27.408C253.363 26.274 252.444 25.355 251.31 25.355Z" fill="#00A0FF"/>
<path d="M267.648 106.092C267.648 107.226 268.567 108.145 269.701 108.145H292.839C303.078 108.145 311.408 100.205 311.408 90.445V41.815C311.408 40.681 310.489 39.762 309.355 39.762H269.701C268.567 39.762 267.648 40.681 267.648 41.815V106.092ZM292.839 100.902H276.944C275.81 100.902 274.891 99.983 274.891 98.849V77.039C274.891 75.905 275.81 74.986 276.944 74.986H302.111C303.245 74.986 304.164 75.905 304.164 77.039V90.445C304.165 96.211 299.084 100.902 292.839 100.902ZM304.165 49.059V65.69C304.165 66.824 303.246 67.743 302.112 67.743H276.945C275.811 67.743 274.892 66.824 274.892 65.69V49.059C274.892 47.925 275.811 47.006 276.945 47.006H302.112C303.246 47.006 304.165 47.925 304.165 49.059Z" fill="#00A0FF"/>
<path d="M299.171 25.301H278.731C277.597 25.301 276.678 26.22 276.678 27.354V30.491C276.678 31.625 277.597 32.544 278.731 32.544H299.171C300.305 32.544 301.224 31.625 301.224 30.491V27.354C301.224 26.22 300.305 25.301 299.171 25.301Z" fill="#00A0FF"/>
<path d="M377.303 28.487H334.73C333.596 28.487 332.677 29.406 332.677 30.54V33.677C332.677 34.811 333.596 35.73 334.73 35.73H377.303C378.437 35.73 379.356 34.811 379.356 33.677V30.54C379.356 29.406 378.437 28.487 377.303 28.487Z" fill="#00A0FF"/>
<path d="M359.11 64.8H388.767C389.901 64.8 390.82 63.881 390.82 62.747V59.61C390.82 58.476 389.901 57.557 388.767 57.557H323.257C322.123 57.557 321.204 58.476 321.204 59.61V62.747C321.204 63.881 322.123 64.8 323.257 64.8H343.531C345.169 64.8 346.148 66.624 345.242 67.989L331.75 92.332C331.387 92.877 331.118 93.412 330.929 93.965C329.8 97.264 330.328 100.803 332.38 103.675C334.53 106.685 338.086 108.481 341.889 108.481H378.865C380.527 108.481 382.046 107.652 382.926 106.263C383.789 104.904 383.895 103.224 383.209 101.768L374.623 85.125C374.103 84.117 372.864 83.722 371.857 84.242L369.069 85.681C368.061 86.201 367.666 87.439 368.186 88.447L373.241 98.243C373.946 99.61 372.954 101.238 371.416 101.238H341.888C340.396 101.238 339.078 100.591 338.272 99.463C337.905 98.951 337.373 97.933 337.683 96.665C337.735 96.453 337.84 96.252 337.961 96.069L354.358 67.349C355.416 65.757 357.199 64.8 359.11 64.8Z" fill="#00A0FF"/>
</svg>
