<svg width="86" height="24" viewBox="0 0 86 24" fill="none" xmlns="http://www.w3.org/2000/svg">
<path d="M2.67259 6.03032C3.98864 6.9703 5.17916 7.58139 5.90522 9.00301" stroke="black" stroke-width="1.75" stroke-linecap="round" stroke-linejoin="round"/>
<path d="M1.14997 15.5098C1.91647 15.2635 3.18237 14.6499 3.88944 15.3539C4.85686 16.3173 4.93281 18.0099 5.12941 19.2765C5.19162 19.6773 5.31967 20.2852 5.75506 19.7485C7.14646 18.0333 7.91933 15.733 8.83748 13.7526" stroke="black" stroke-width="1.75" stroke-linecap="round" stroke-linejoin="round"/>
<path d="M9.78014 7.23179C10.6987 6.86384 14.4284 4.93639 14.3949 7.02223C14.3671 8.75924 13.582 10.4764 13.0653 12.1129" stroke="black" stroke-width="1.75" stroke-linecap="round" stroke-linejoin="round"/>
<path d="M10.631 13.5769C11.6638 13.0948 12.6939 12.6139 13.6645 12.0146" stroke="black" stroke-width="1.75" stroke-linecap="round" stroke-linejoin="round"/>
<path d="M11.0047 13.1133C10.6006 15.4356 9.30903 19.0457 12.8178 19.2008C14.8919 19.2924 17.0259 19.1062 18.8803 18.1017C20.9803 16.9643 21.4087 15.4589 21.4862 13.241" stroke="black" stroke-width="1.75" stroke-linecap="round" stroke-linejoin="round"/>
<path d="M27.4982 3.27213C28.7471 2.65774 29.988 2.12109 31.3375 1.76446C32.025 1.58276 33.4757 1.06197 34.1821 1.44012C34.6879 1.71091 34.4159 2.97051 34.3792 3.38002C34.2605 4.70192 34.039 6.00348 33.7919 7.30499" stroke="black" stroke-width="1.75" stroke-linecap="round" stroke-linejoin="round"/>
<path d="M28.0793 7.1055C29.7107 6.52298 31.3227 5.97098 33.017 5.60971" stroke="black" stroke-width="1.75" stroke-linecap="round" stroke-linejoin="round"/>
<path d="M25.3155 11.1795C29.7682 9.66722 34.1147 7.98132 38.6923 6.88032" stroke="black" stroke-width="1.75" stroke-linecap="round" stroke-linejoin="round"/>
<path d="M31.5458 10.2055C31.8747 12.2455 32.1999 14.2735 32.3379 16.3367C32.4251 17.6395 32.7512 19.2092 32.4572 20.5048C32.0069 22.4894 29.1239 19.5491 28.3778 19.0318" stroke="black" stroke-width="1.75" stroke-linecap="round" stroke-linejoin="round"/>
<path d="M26.024 14.779C27.3278 14.5541 28.6757 14.057 28.2355 15.9022C27.9311 17.178 27.3368 18.378 26.8098 19.5728" stroke="black" stroke-width="1.75" stroke-linecap="round" stroke-linejoin="round"/>
<path d="M36.9705 11.8249C36.1682 12.9972 35.4213 14.0189 34.359 14.9509" stroke="black" stroke-width="1.75" stroke-linecap="round" stroke-linejoin="round"/>
<path d="M34.1127 15.1807C36.2231 16.4282 38.235 17.3077 40.567 18.0275" stroke="black" stroke-width="1.75" stroke-linecap="round" stroke-linejoin="round"/>
<path d="M45.7891 3.90538C48.3773 3.05055 50.9427 2.34916 53.6487 2" stroke="black" stroke-width="1.75" stroke-linecap="round" stroke-linejoin="round"/>
<path d="M44.241 11.8841C47.3423 11.3202 50.2585 10.2546 53.2915 9.42303C54.5578 9.07586 55.849 8.81626 57.1022 8.43064" stroke="black" stroke-width="1.75" stroke-linecap="round" stroke-linejoin="round"/>
<path d="M51.0288 4.02446C51.4533 10.2913 51.3861 16.5625 51.3861 22.84" stroke="black" stroke-width="1.75" stroke-linecap="round" stroke-linejoin="round"/>
<path d="M60.6025 10.5211C63.3549 9.2896 65.9335 7.85096 68.4963 6.2687" stroke="black" stroke-width="1.75" stroke-linecap="round" stroke-linejoin="round"/>
<path d="M65.5766 1.16209C66.0562 6.54259 66.472 12.0007 66.32 17.4069C66.3091 17.7943 66.2017 21.137 66.3107 21.0872" stroke="black" stroke-width="1.75" stroke-linecap="round" stroke-linejoin="round"/>
<path d="M65.4005 9.61619C64.4544 12.5618 63.4233 15.4665 62.2366 18.3234" stroke="black" stroke-width="1.75" stroke-linecap="round" stroke-linejoin="round"/>
<path d="M65.5887 11.0527C66.6818 11.8324 67.624 12.7335 68.6651 13.5698C69.3959 14.1568 70.0786 14.2447 70.9511 14.4572" stroke="black" stroke-width="1.75" stroke-linecap="round" stroke-linejoin="round"/>
<path d="M71.5548 3.99233C73.174 3.70407 75.7766 2.77159 77.4197 3.24388" stroke="black" stroke-width="1.75" stroke-linecap="round" stroke-linejoin="round"/>
<path d="M74.9979 4.35089C73.7314 8.04052 72.6603 11.9059 70.9178 15.4093" stroke="black" stroke-width="1.75" stroke-linecap="round" stroke-linejoin="round"/>
<path d="M73.9736 9.79642C73.9792 13.4922 74.0444 17.187 74.0632 20.8813" stroke="black" stroke-width="1.75" stroke-linecap="round" stroke-linejoin="round"/>
<path d="M73.7273 10.0261C75.6796 10.9117 77.4594 12.0288 79.3416 13.0423C80.9128 13.8883 82.4527 14.2986 84.1699 14.6805" stroke="black" stroke-width="1.75" stroke-linecap="round" stroke-linejoin="round"/>
</svg>
